<?xml version='1.0' encoding='UTF-8' standalone='no'?>
<svg xmlns="http://www.w3.org/2000/svg" gorn="0" viewBox="0 0 25.90092 25.773905" height="1.0147207in" width="1.0197213in" id="svg2" x="0in" y="0in"  version="1.2">
    <metadata id="metadata54" >
        <rdf:RDF xmlns:rdf="http://www.w3.org/1999/02/22-rdf-syntax-ns#">
            <cc:Work xmlns:cc="http://creativecommons.org/ns#" rdf:about="" xmlns:rdf="http://www.w3.org/1999/02/22-rdf-syntax-ns#">
                <dc:format xmlns:dc="http://purl.org/dc/elements/1.1/">image/svg+xml</dc:format>
                <dc:type rdf:resource="http://purl.org/dc/dcmitype/StillImage" xmlns:rdf="http://www.w3.org/1999/02/22-rdf-syntax-ns#" xmlns:dc="http://purl.org/dc/elements/1.1/"/>
                <dc:title xmlns:dc="http://purl.org/dc/elements/1.1/"/>
            </cc:Work>
        </rdf:RDF>
    </metadata>
    <defs id="defs52" />
    <desc id="desc4" >
        <referenceFile >LiPo-USB-Charger-v21_schematic.svg</referenceFile>
    </desc>
    <g transform="translate(0.25046089,-0.25046078)" >
        <g >
            <g gorn="0.3.0.0" id="schematics" >
                <rect gorn="0.3.0.0.0" style="fill:#ffffff;stroke:#000000;stroke-width:0.38882682;stroke-linecap:round" height="14.851172" width="14.832392" id="rect7" x="5.2744136" y="5.7753334" class="interior rect" />
                <line gorn="0.3.0.0.1" style="fill:none;stroke:none;stroke-width:0;stroke-linecap:round" id="line7" class="pin" y1="20.697422" y2="25.777422"  x1="10.16" x2="10.16"/>
                <rect gorn="0.3.0.0.2" style="fill:none;stroke:none;stroke-width:0" height="0.246944" width="0.246944" id="rect9" x="10.03653" y="25.777422" class="terminal" />
                <line gorn="0.3.0.0.3" style="fill:none;stroke:#787878;stroke-width:0.246944;stroke-linecap:round" id="connector13pin" class="pin" y1="15.74092" y2="15.74092"  x1="20.44523" x2="25.52523"/>
                <rect height="0.000493888" width="0.0106539" id="connector13terminal" x="25.6434" y="15.7407" fill="none" stroke="none" stroke-width="0"/>
                <g transform="matrix(0,1,-1,0,16.852553,16.181935)" >
                    <g >
                        <g gorn="0.3.0.0.4.0.0" id="g23" >
                            <g gorn="0.3.0.0.4.0.0.0" id="g25" >
                                <g gorn="0.3.0.0.4.0.0.0.0" id="g27" >
                                    <g gorn="0.3.0.0.4.0.0.0.0.0" id="g29" >
                                        <g gorn="0.3.0.0.4.0.0.0.0.0.0" id="g31" >
                                            <g gorn="0.3.0.0.4.0.0.0.0.0.0.0" id="g33" >
                                                <g gorn="0.3.0.0.4.0.0.0.0.0.0.0.0" id="g35" >
                                                    <g transform="matrix(0,-1,1,0,0,0)" >
                                                        <g >
                                                            <g gorn="0.3.0.0.4.0.0.0.0.0.0.0.0.0.0.0" id="g37" >
                                                                <g gorn="0.3.0.0.4.0.0.0.0.0.0.0.0.0.0.0.0" id="g39" >
                                                                    <g gorn="0.3.0.0.4.0.0.0.0.0.0.0.0.0.0.0.0.0" id="g41" >
                                                                        <g gorn="0.3.0.0.4.0.0.0.0.0.0.0.0.0.0.0.0.0.0" id="g43" >
                                                                            <g gorn="0.3.0.0.4.0.0.0.0.0.0.0.0.0.0.0.0.0.0.0" id="g45" >
                                                                                <g gorn="0.3.0.0.4.0.0.0.0.0.0.0.0.0.0.0.0.0.0.0.0" id="g22" >
                                                                                    <g gorn="0.3.0.0.4.0.0.0.0.0.0.0.0.0.0.0.0.0.0.0.0.0" id="g48" >
                                                                                        <g gorn="0.3.0.0.4.0.0.0.0.0.0.0.0.0.0.0.0.0.0.0.0.0.0" id="g20" >
                                                                                            <g gorn="0.3.0.0.4.0.0.0.0.0.0.0.0.0.0.0.0.0.0.0.0.0.0.0" id="g26" >
                                                                                                <g style="font-size:0.348465px;font-family:'Droid Sans';text-anchor:start;fill:#8c8c8c;stroke:none;stroke-width:0" gorn="0.3.0.0.4.0.0.0.0.0.0.0.0.0.0.0.0.0.0.0.0.0.0.0.0" font-size="0.348465" id="text24" >
                                                                                                    <path style="font-size:0.348465px;font-family:'Droid Sans';text-anchor:start;fill:#8c8c8c;stroke:none;stroke-width:0" gorn="0.3.0.0.4.0.0.0.0.0.0.0.0.0.0.0.0.0.0.0.0.0.0.0.0.0" d="m 0.47146047,-0.46543156 0.29179906,0 0,0.43227258 q -0.033159,0.01085203 -0.0669209,0.0192925 Q 0.66257679,-0.00542602 0.62700625,0 0.5914357,0.00602891 0.55224781,0.00904336 q -0.0391879,0.00301445 -0.0844047,0.00301445 -0.0946538,0 -0.16760359,-0.03135031 -0.0729498,-0.0319532 -0.12298969,-0.09043359 -0.0500399,-0.0590833 -0.0759642,-0.14288508 -0.02592429,-0.0844047 -0.02592429,-0.18930766 0,-0.10369718 0.02833586,-0.18749898 0.0289388,-0.0838018 0.0838018,-0.14228218 0.054863,-0.0590833 0.1350475,-0.0904336 0.0807873,-0.0319532 0.18388164,-0.0319532 0.0669209,0 0.1284157,0.0132636 0.0614949,0.0132636 0.11454922,0.038585 l -0.0434081,0.0976683 q -0.0217041,-0.0102491 -0.0470255,-0.0192925 -0.0247185,-0.009043 -0.0512457,-0.0156751 -0.0265272,-0.007235 -0.0548631,-0.0114549 -0.027733,-0.00422 -0.0554659,-0.00422 -0.0735527,0 -0.13022437,0.0247185 -0.0566717,0.0241156 -0.0952567,0.0699353 -0.0379821,0.0458197 -0.0578775,0.11153476 -0.0198954,0.0657151 -0.0198954,0.1483111 0,0.0783758 0.016278,0.14348796 0.0168809,0.0651122 0.0530544,0.11213766 0.0361734,0.0470255 0.0934481,0.0729498 0.0572746,0.0259243 0.13806195,0.0259243 0.0265272,0 0.0482312,-0.0012058 0.022307,-0.0018087 0.0409966,-0.0042202 0.0186896,-0.0024116 0.0349677,-0.005426 0.0168809,-0.0036173 0.0325561,-0.0066318 l 0,-0.26286031 -0.18026429,0 0,-0.0988741 z" font-size="0.348465" id="path4479" />
                                                                                                    <path style="font-size:0.348465px;font-family:'Droid Sans';text-anchor:start;fill:#8c8c8c;stroke:none;stroke-width:0" gorn="0.3.0.0.4.0.0.0.0.0.0.0.0.0.0.0.0.0.0.0.0.0.0.0.0.1" d="m 1.631422,0 -0.1296214,0 -0.4334784,-0.72949765 -0.00482,0 q 0.00362,0.0464226 0.00603,0.0922423 0.00241,0.0391879 0.00362,0.0819931 0.00181,0.0428052 0.00181,0.07717 L 1.074954,0 0.97125682,0 l 0,-0.88142609 0.12841568,0 0.4316697,0.72588031 0.00422,0 q -0.00181,-0.0458197 -0.00422,-0.0904336 -6.029e-4,-0.0192925 -0.00181,-0.0391879 -6.029e-4,-0.0204983 -0.00181,-0.0403937 -6.029e-4,-0.0204983 -0.00121,-0.0391879 0,-0.0186896 0,-0.0343648 l 0,-0.4823125 0.1049029,0 0,0.88142609 z" font-size="0.348465" id="path4481" />
                                                                                                    <path style="font-size:0.348465px;font-family:'Droid Sans';text-anchor:start;fill:#8c8c8c;stroke:none;stroke-width:0" gorn="0.3.0.0.4.0.0.0.0.0.0.0.0.0.0.0.0.0.0.0.0.0.0.0.0.2" d="m 2.5224944,-0.44915351 q 0,0.11153476 -0.028939,0.19593945 -0.028939,0.0838018 -0.083802,0.14047351 -0.054863,0.05606883 -0.1350475,0.08440469 Q 2.1951248,0 2.0938392,0 l -0.220658,0 0,-0.88142609 0.2453765,0 q 0.092242,0 0.1670007,0.027733 0.074758,0.027733 0.12721,0.082596 0.052451,0.0542601 0.080787,0.13504749 0.028939,0.0807874 0.028939,0.1868961 z m -0.1187694,0.003617 q 0,-0.088022 -0.019895,-0.15192844 -0.019895,-0.0645093 -0.057878,-0.10610874 -0.037982,-0.0415995 -0.093448,-0.0614949 -0.055466,-0.0204983 -0.1260042,-0.0204983 l -0.121181,0 0,0.68910398 0.097668,0 q 0.1591631,0 0.2399505,-0.08802203 0.080787,-0.088022 0.080787,-0.26105164 z" font-size="0.348465" id="path4483" />
                                                                                                </g>
                                                                                            </g>
                                                                                        </g>
                                                                                    </g>
                                                                                </g>
                                                                            </g>
                                                                        </g>
                                                                    </g>
                                                                </g>
                                                            </g>
                                                        </g>
                                                    </g>
                                                </g>
                                            </g>
                                        </g>
                                    </g>
                                </g>
                            </g>
                        </g>
                    </g>
                </g>
                <rect gorn="0.3.0.0.5" style="fill:none;stroke:none;stroke-width:0" height="0.246944" width="0.246944" id="rect29" x="10.03653" y="25.777422" class="terminal" />
                <line style="fill:none;stroke:none;stroke-width:0;stroke-linecap:round" gorn="0.3.0.0.6" id="line57" class="pin" y1="0.62439209" y2="5.70439"  x1="10.16" x2="10.16"/>
                <rect style="fill:none;stroke:none;stroke-width:0" gorn="0.3.0.0.7" height="0.246944" width="0.246944" x="10.03653" id="rect59" y="0.37744808" class="terminal" />
                <line gorn="0.3.0.0.8" style="fill:none;stroke:#787878;stroke-width:0.246944;stroke-linecap:round" id="connector10pin" class="pin" y1="0.49916151" y2="5.5791597"  x1="10.16" x2="10.16"/>
                <rect height="0.0106539" width="0.000493888" id="connector10terminal" x="10.1598" y="0.370363" fill="none" stroke="none" stroke-width="0"/>
                <g transform="translate(-0.25046089,0.25046078)" >
                    <g >
                        <g gorn="0.3.0.0.9.0.0" id="g4494" >
                            <g transform="translate(10.852982,6.2119073)" >
                                <g >
                                    <g gorn="0.3.0.0.9.0.0.0.0.0" id="g63" >
                                        <g gorn="0.3.0.0.9.0.0.0.0.0.0" id="g65" >
                                            <g gorn="0.3.0.0.9.0.0.0.0.0.0.0" id="g67" >
                                                <g gorn="0.3.0.0.9.0.0.0.0.0.0.0.0" id="g69" >
                                                    <g gorn="0.3.0.0.9.0.0.0.0.0.0.0.0.0" id="g71" >
                                                        <g gorn="0.3.0.0.9.0.0.0.0.0.0.0.0.0.0" id="g34" >
                                                            <g gorn="0.3.0.0.9.0.0.0.0.0.0.0.0.0.0.0" id="g30" >
                                                                <g gorn="0.3.0.0.9.0.0.0.0.0.0.0.0.0.0.0.0" id="g32" >
                                                                    <g gorn="0.3.0.0.9.0.0.0.0.0.0.0.0.0.0.0.0.0" id="g38" >
                                                                        <g transform="matrix(0,-1,1,0,0,0)" >
                                                                            <g >
                                                                                <g gorn="0.3.0.0.9.0.0.0.0.0.0.0.0.0.0.0.0.0.0.0.0" id="g77" >
                                                                                    <g gorn="0.3.0.0.9.0.0.0.0.0.0.0.0.0.0.0.0.0.0.0.0.0" id="g79" >
                                                                                        <g gorn="0.3.0.0.9.0.0.0.0.0.0.0.0.0.0.0.0.0.0.0.0.0.0" id="g81" >
                                                                                            <g gorn="0.3.0.0.9.0.0.0.0.0.0.0.0.0.0.0.0.0.0.0.0.0.0.0" id="g83" >
                                                                                                <g gorn="0.3.0.0.9.0.0.0.0.0.0.0.0.0.0.0.0.0.0.0.0.0.0.0.0" id="g85" >
                                                                                                    <g gorn="0.3.0.0.9.0.0.0.0.0.0.0.0.0.0.0.0.0.0.0.0.0.0.0.0.0" id="g40" >
                                                                                                        <g gorn="0.3.0.0.9.0.0.0.0.0.0.0.0.0.0.0.0.0.0.0.0.0.0.0.0.0.0" id="g36" >
                                                                                                            <g gorn="0.3.0.0.9.0.0.0.0.0.0.0.0.0.0.0.0.0.0.0.0.0.0.0.0.0.0.0" id="g89" >
                                                                                                                <g gorn="0.3.0.0.9.0.0.0.0.0.0.0.0.0.0.0.0.0.0.0.0.0.0.0.0.0.0.0.0" id="g91" >
                                                                                                                    <g gorn="0.3.0.0.9.0.0.0.0.0.0.0.0.0.0.0.0.0.0.0.0.0.0.0.0.0.0.0.0.0" style="font-size:0.348465px;font-family:'Droid Sans';text-anchor:end;fill:#8c8c8c;stroke:none;stroke-width:0" font-size="0.348465" id="text42" >
                                                                                                                        <path gorn="0.3.0.0.9.0.0.0.0.0.0.0.0.0.0.0.0.0.0.0.0.0.0.0.0.0.0.0.0.0.0" style="font-size:0.348465px;font-family:'Droid Sans';text-anchor:end;fill:#8c8c8c;stroke:none;stroke-width:0" d="m -2.6436754,-0.88142609 0.2405534,0 q 0.07717,0 0.1356504,0.0120578 0.059083,0.0114549 0.098271,0.0379821 0.039791,0.0259243 0.059686,0.0687295 0.019895,0.0422023 0.019895,0.10430008 0,0.0373792 -0.012058,0.0699353 -0.011455,0.0325561 -0.033762,0.0572746 -0.022307,0.0247185 -0.055466,0.0415995 -0.032556,0.016278 -0.074156,0.0217041 l 0,0.006029 q 0.041599,0.007235 0.077773,0.0211012 0.036776,0.0132636 0.063906,0.0373792 0.02713,0.0235127 0.042805,0.0596862 0.015675,0.0361734 0.015675,0.088022 0,0.0602891 -0.019895,0.10791742 -0.019292,0.0470255 -0.056672,0.08018445 -0.036776,0.03255609 -0.089831,0.05003992 Q -2.2843526,0 -2.3512734,0 l -0.292402,0 0,-0.88142609 z m 0.1121377,0.37379219 0.1471053,0 q 0.050643,0 0.085008,-0.009043 0.034365,-0.009043 0.055466,-0.0265272 0.021101,-0.0180867 0.030145,-0.0446139 0.00965,-0.0271301 0.00965,-0.0627006 0,-0.0723469 -0.046423,-0.10369719 -0.046423,-0.0313503 -0.1465024,-0.0313503 l -0.1344446,0 0,0.27793258 z m 0,0.0940509 0,0.31832625 0.1603689,0 q 0.053054,0 0.088625,-0.01205781 0.036173,-0.0120578 0.057878,-0.0337619 0.022307,-0.0217041 0.031953,-0.0518486 0.00965,-0.0307474 0.00965,-0.0675238 0,-0.0337619 -0.010249,-0.0620977 -0.00965,-0.0283359 -0.032556,-0.0482313 -0.022307,-0.0204983 -0.059686,-0.0313503 -0.037379,-0.0114549 -0.092845,-0.0114549 l -0.1531342,0 z" font-size="0.348465" id="path4452" />
                                                                                                                        <path gorn="0.3.0.0.9.0.0.0.0.0.0.0.0.0.0.0.0.0.0.0.0.0.0.0.0.0.0.0.0.0.1" style="font-size:0.348465px;font-family:'Droid Sans';text-anchor:end;fill:#8c8c8c;stroke:none;stroke-width:0" d="m -1.3607241,0 -0.096462,-0.27310945 -0.3285754,0 L -1.8834303,0 l -0.1133434,0 0.3237522,-0.88504343 0.1024914,0 L -1.2461749,0 -1.3607241,0 Z m -0.1320331,-0.3725864 -0.089228,-0.25562563 q -0.00362,-0.010852 -0.00904,-0.0265272 -0.00482,-0.0156752 -0.010249,-0.0337619 -0.00543,-0.0180867 -0.010852,-0.0373792 -0.00543,-0.0198954 -0.010249,-0.038585 -0.00422,0.0186896 -0.00965,0.038585 -0.00543,0.0198954 -0.010852,0.038585 -0.00543,0.0180867 -0.010852,0.0337619 -0.00482,0.0150723 -0.00844,0.0253214 l -0.087419,0.25562563 0.2568314,0 z" font-size="0.348465" id="path4454" />
                                                                                                                        <path gorn="0.3.0.0.9.0.0.0.0.0.0.0.0.0.0.0.0.0.0.0.0.0.0.0.0.0.0.0.0.0.2" style="font-size:0.348465px;font-family:'Droid Sans';text-anchor:end;fill:#8c8c8c;stroke:none;stroke-width:0" d="m -0.94472962,0 -0.11274058,0 0,-0.78255203 -0.2520082,0 0,-0.0988741 0.61615417,0 0,0.0988741 -0.25140539,0 0,0.78255203 z" font-size="0.348465" id="path4456" />
                                                                                                                        <path gorn="0.3.0.0.9.0.0.0.0.0.0.0.0.0.0.0.0.0.0.0.0.0.0.0.0.0.0.0.0.0.3" style="font-size:0.348465px;font-family:'Droid Sans';text-anchor:end;fill:#8c8c8c;stroke:none;stroke-width:0" d="m -0.38524706,-0.39007023 -0.23331867,0 0,-0.0904336 0.23331867,0 0,-0.23452446 0.0904336,0 0,0.23452446 0.23331867,0 0,0.0904336 -0.23331867,0 0,0.23211289 -0.0904336,0 0,-0.23211289 z" font-size="0.348465" id="path4458" />
                                                                                                                    </g>
                                                                                                                </g>
                                                                                                            </g>
                                                                                                        </g>
                                                                                                    </g>
                                                                                                </g>
                                                                                            </g>
                                                                                        </g>
                                                                                    </g>
                                                                                </g>
                                                                            </g>
                                                                        </g>
                                                                    </g>
                                                                </g>
                                                            </g>
                                                        </g>
                                                    </g>
                                                </g>
                                            </g>
                                        </g>
                                    </g>
                                </g>
                            </g>
                        </g>
                    </g>
                </g>
                <rect gorn="0.3.0.0.10" style="fill:none;stroke:none;stroke-width:0" height="0.246944" width="0.246944" id="rect48" x="10.03653" y="0.37744808" class="terminal" />
                <path gorn="0.3.0.0.11" style="font-size:0.42313901px;font-family:'Droid Sans';text-anchor:middle;fill:#000000;stroke:none;stroke-width:0" d="m 10.702266,13.737173 -0.1369,0 0,-0.950246 -0.306012,0 0,-0.120062 0.748191,0 0,0.120062 -0.305279,0 0,0.950246 z" font-size="0.423139" id="path4428" />
                <path gorn="0.3.0.0.12" style="font-size:0.42313901px;font-family:'Droid Sans';text-anchor:middle;fill:#000000;stroke:none;stroke-width:0" d="m 11.810643,12.980198 q 0,0.06662 -0.0205,0.128114 -0.01977,0.0615 -0.06589,0.109081 -0.04612,0.04685 -0.122259,0.0754 -0.0754,0.02782 -0.186681,0.02782 l -0.109813,0 0,0.416556 -0.136168,0 0,-1.070308 0.265015,0 q 0.0981,0 0.169111,0.02123 0.07101,0.0205 0.117134,0.06076 0.04612,0.03953 0.06808,0.0981 0.02196,0.05857 0.02196,0.13324 z m -0.505139,0.22475 0.09444,0 q 0.06808,0 0.118598,-0.01171 0.05125,-0.01171 0.08419,-0.03734 0.03368,-0.02635 0.05051,-0.06735 0.01684,-0.04173 0.01684,-0.101028 0,-0.103956 -0.06003,-0.153737 -0.06003,-0.05051 -0.187413,-0.05051 l -0.117134,0 0,0.421681 z" font-size="0.423139" id="path4430" />
                <path gorn="0.3.0.0.13" style="font-size:0.42313901px;font-family:'Droid Sans';text-anchor:middle;fill:#000000;stroke:none;stroke-width:0" d="m 12.683288,13.49705 -0.155934,0 0,0.240123 -0.128847,0 0,-0.240123 -0.494158,0 0,-0.116402 0.485373,-0.719639 0.137632,0 0,0.714514 0.155934,0 0,0.121527 z m -0.284781,-0.121527 0,-0.260622 q 0,-0.041 7.32e-4,-0.08565 0.0015,-0.04539 0.0029,-0.08785 0.0015,-0.04319 0.0029,-0.08053 0.0022,-0.03734 0.0029,-0.06223 l -0.0066,0 q -0.0051,0.01464 -0.01318,0.03294 -0.0073,0.01757 -0.01684,0.03587 -0.0088,0.01757 -0.0183,0.03441 -0.0095,0.01684 -0.01757,0.02855 l -0.300886,0.445107 0.363846,0 z" font-size="0.423139" id="path4432" />
                <path gorn="0.3.0.0.14" style="font-size:0.42313901px;font-family:'Droid Sans';text-anchor:middle;fill:#000000;stroke:none;stroke-width:0" d="m 13.468815,13.200555 q 0,0.129579 -0.01903,0.232071 -0.0183,0.102492 -0.06003,0.173504 -0.041,0.07101 -0.106153,0.108349 -0.06516,0.03734 -0.15813,0.03734 -0.08639,0 -0.150809,-0.03734 -0.06369,-0.03734 -0.106153,-0.108349 -0.04173,-0.07101 -0.06296,-0.173504 -0.0205,-0.102492 -0.0205,-0.232071 0,-0.129579 0.0183,-0.232071 0.01903,-0.102492 0.0593,-0.172772 0.041,-0.07101 0.10542,-0.108348 0.06516,-0.03734 0.157398,-0.03734 0.08712,0 0.151542,0.03734 0.06442,0.0366 0.106884,0.107616 0.04246,0.07028 0.06369,0.172772 0.02123,0.102492 0.02123,0.232803 z m -0.548332,0 q 0,0.109813 0.01098,0.191806 0.01098,0.08199 0.03514,0.1369 0.02416,0.05417 0.06296,0.08199 0.03953,0.02709 0.0959,0.02709 0.05637,0 0.0959,-0.02709 0.03953,-0.02709 0.06442,-0.08126 0.02562,-0.05417 0.0366,-0.136167 0.01171,-0.08273 0.01171,-0.193271 0,-0.109813 -0.01171,-0.191806 -0.01098,-0.08199 -0.0366,-0.136168 -0.02489,-0.05417 -0.06442,-0.08126 -0.03953,-0.02709 -0.0959,-0.02709 -0.05637,0 -0.0959,0.02709 -0.0388,0.02709 -0.06296,0.08126 -0.02416,0.05417 -0.03514,0.136168 -0.01098,0.08199 -0.01098,0.191806 z" font-size="0.423139" id="path4434" />
                <path gorn="0.3.0.0.15" style="font-size:0.42313901px;font-family:'Droid Sans';text-anchor:middle;fill:#000000;stroke:none;stroke-width:0" d="m 13.938081,13.080493 q 0.07248,0 0.134704,0.0205 0.06296,0.01977 0.109081,0.0593 0.04685,0.03953 0.07321,0.0981 0.02636,0.05857 0.02636,0.135436 0,0.08346 -0.02489,0.150077 -0.02489,0.06662 -0.07394,0.112741 -0.04905,0.04612 -0.121526,0.07101 -0.07174,0.02416 -0.165451,0.02416 -0.03734,0 -0.07394,-0.0037 -0.03587,-0.0037 -0.06955,-0.01098 -0.03294,-0.0066 -0.06296,-0.01757 -0.03002,-0.01098 -0.05417,-0.02562 l 0,-0.125918 q 0.02416,0.01684 0.05637,0.03002 0.03294,0.01318 0.06882,0.02196 0.03587,0.0088 0.07174,0.01391 0.0366,0.0044 0.06735,0.0044 0.05784,0 0.103224,-0.01318 0.04539,-0.01391 0.07687,-0.04246 0.03148,-0.02855 0.04832,-0.07174 0.01684,-0.04319 0.01684,-0.102492 0,-0.104688 -0.06442,-0.159594 -0.06442,-0.05564 -0.187414,-0.05564 -0.01977,0 -0.04319,0.0022 -0.02269,0.0015 -0.04612,0.0044 -0.0227,0.0029 -0.04392,0.0066 -0.0205,0.0029 -0.03587,0.0059 l -0.06589,-0.04173 0.04026,-0.503675 0.505138,0 0,0.121526 -0.389469,0 -0.02855,0.306744 q 0.02343,-0.0044 0.0615,-0.0095 0.0388,-0.0051 0.09151,-0.0051 z" font-size="0.423139" id="path4436" />
                <path gorn="0.3.0.0.16" style="font-size:0.42313901px;font-family:'Droid Sans';text-anchor:middle;fill:#000000;stroke:none;stroke-width:0" d="m 14.447613,13.27962 q 0,-0.07687 0.0073,-0.153005 0.0081,-0.07614 0.02709,-0.145685 0.01977,-0.07028 0.05344,-0.130311 0.03368,-0.06003 0.08565,-0.103957 0.05198,-0.04466 0.124454,-0.06955 0.07248,-0.02562 0.169844,-0.02562 0.01391,0 0.03075,7.33e-4 0.01684,7.32e-4 0.03368,0.0029 0.01757,0.0015 0.03294,0.0044 0.01611,0.0022 0.02855,0.0059 l 0,0.113473 q -0.02562,-0.0088 -0.05784,-0.01318 -0.03221,-0.0044 -0.06369,-0.0044 -0.06589,0 -0.116402,0.01611 -0.04978,0.01537 -0.08639,0.04392 -0.0366,0.02855 -0.06149,0.06808 -0.02416,0.03953 -0.03953,0.08785 -0.01537,0.04759 -0.02269,0.10176 -0.0073,0.05417 -0.0095,0.112741 l 0.0088,0 q 0.01464,-0.02636 0.03514,-0.04905 0.02123,-0.02343 0.04905,-0.03953 0.02782,-0.01684 0.06223,-0.02636 0.03514,-0.0095 0.07833,-0.0095 0.06955,0 0.125918,0.02196 0.05637,0.02123 0.0959,0.06296 0.03953,0.04173 0.06076,0.102491 0.02196,0.06003 0.02196,0.137632 0,0.08346 -0.0227,0.150078 -0.02269,0.06662 -0.06516,0.113473 -0.04246,0.04612 -0.102492,0.07101 -0.06003,0.02489 -0.134704,0.02489 -0.07321,0 -0.137632,-0.02855 -0.06369,-0.02855 -0.110544,-0.08712 -0.04685,-0.05857 -0.07394,-0.147149 -0.02709,-0.08858 -0.02709,-0.209377 z m 0.34774,0.360186 q 0.04392,0 0.0798,-0.01464 0.03661,-0.01537 0.06296,-0.04539 0.02636,-0.03075 0.04026,-0.07687 0.01464,-0.04685 0.01464,-0.110545 0,-0.05125 -0.01244,-0.09151 -0.01171,-0.041 -0.03587,-0.06955 -0.02416,-0.02855 -0.06076,-0.04393 -0.03587,-0.01537 -0.08419,-0.01537 -0.04905,0 -0.09005,0.01757 -0.04026,0.01684 -0.06882,0.04466 -0.02855,0.02709 -0.04466,0.06223 -0.01537,0.03514 -0.01537,0.07028 0,0.04905 0.01318,0.0981 0.01391,0.04832 0.04026,0.08712 0.02709,0.0388 0.06735,0.06369 0.04026,0.02416 0.09371,0.02416 z" font-size="0.423139" id="path4438" />
                <line gorn="0.3.0.0.17" style="fill:none;stroke:#787878;stroke-width:0.246944;stroke-linecap:round" id="connector11pin" class="pin" y1="0.37569132" y2="5.4556894"  x1="15.116516" x2="15.116516"/>
                <rect height="0.0106539" width="0.000493888" id="connector11terminal" x="15.1163" y="0.246892" fill="none" stroke="none" stroke-width="0"/>
                <g transform="translate(-0.25046089,0.25046078)" >
                    <g >
                        <g gorn="0.3.0.0.18.0.0" id="g4509" >
                            <g transform="translate(15.809498,6.5567607)" >
                                <g >
                                    <g gorn="0.3.0.0.18.0.0.0.0.0" id="g107" >
                                        <g gorn="0.3.0.0.18.0.0.0.0.0.0" id="g109" >
                                            <g gorn="0.3.0.0.18.0.0.0.0.0.0.0" id="g111" >
                                                <g gorn="0.3.0.0.18.0.0.0.0.0.0.0.0" id="g113" >
                                                    <g gorn="0.3.0.0.18.0.0.0.0.0.0.0.0.0" id="g115" >
                                                        <g gorn="0.3.0.0.18.0.0.0.0.0.0.0.0.0.0" id="g64" >
                                                            <g gorn="0.3.0.0.18.0.0.0.0.0.0.0.0.0.0.0" id="g4503" >
                                                                <g gorn="0.3.0.0.18.0.0.0.0.0.0.0.0.0.0.0.0" id="g4505" >
                                                                    <g gorn="0.3.0.0.18.0.0.0.0.0.0.0.0.0.0.0.0.0" id="g4507" >
                                                                        <g transform="matrix(0,-1,1,0,0,0)" >
                                                                            <g >
                                                                                <g gorn="0.3.0.0.18.0.0.0.0.0.0.0.0.0.0.0.0.0.0.0.0" id="g121" >
                                                                                    <g gorn="0.3.0.0.18.0.0.0.0.0.0.0.0.0.0.0.0.0.0.0.0.0" id="g123" >
                                                                                        <g gorn="0.3.0.0.18.0.0.0.0.0.0.0.0.0.0.0.0.0.0.0.0.0.0" id="g125" >
                                                                                            <g gorn="0.3.0.0.18.0.0.0.0.0.0.0.0.0.0.0.0.0.0.0.0.0.0.0" id="g127" >
                                                                                                <g gorn="0.3.0.0.18.0.0.0.0.0.0.0.0.0.0.0.0.0.0.0.0.0.0.0.0" id="g129" >
                                                                                                    <g gorn="0.3.0.0.18.0.0.0.0.0.0.0.0.0.0.0.0.0.0.0.0.0.0.0.0.0" id="g131" >
                                                                                                        <g gorn="0.3.0.0.18.0.0.0.0.0.0.0.0.0.0.0.0.0.0.0.0.0.0.0.0.0.0" id="g4516" >
                                                                                                            <g gorn="0.3.0.0.18.0.0.0.0.0.0.0.0.0.0.0.0.0.0.0.0.0.0.0.0.0.0.0" id="g4511" >
                                                                                                                <g gorn="0.3.0.0.18.0.0.0.0.0.0.0.0.0.0.0.0.0.0.0.0.0.0.0.0.0.0.0.0" id="g4513" >
                                                                                                                    <g gorn="0.3.0.0.18.0.0.0.0.0.0.0.0.0.0.0.0.0.0.0.0.0.0.0.0.0.0.0.0.0" style="font-size:0.348465px;font-family:'Droid Sans';text-anchor:end;fill:#8c8c8c;stroke:none;stroke-width:0" font-size="0.348465" id="text4515" >
                                                                                                                        <path gorn="0.3.0.0.18.0.0.0.0.0.0.0.0.0.0.0.0.0.0.0.0.0.0.0.0.0.0.0.0.0.0" style="font-size:0.348465px;font-family:'Droid Sans';text-anchor:end;fill:#8c8c8c;stroke:none;stroke-width:0" d="m -2.2988219,-0.88142609 0.2405533,0 q 0.07717,0 0.1356504,0.0120578 0.059083,0.0114549 0.098271,0.0379821 0.039791,0.0259243 0.059686,0.0687295 0.019895,0.0422023 0.019895,0.10430008 0,0.0373792 -0.012058,0.0699353 -0.011455,0.0325561 -0.033762,0.0572746 -0.022307,0.0247185 -0.055466,0.0415995 -0.032556,0.016278 -0.074156,0.0217041 l 0,0.006029 q 0.041599,0.007235 0.077773,0.0211012 0.036776,0.0132636 0.063906,0.0373792 0.02713,0.0235127 0.042805,0.0596862 0.015675,0.0361734 0.015675,0.088022 0,0.0602891 -0.019895,0.10791742 -0.019292,0.0470255 -0.056672,0.08018445 -0.036776,0.03255609 -0.089831,0.05003992 Q -1.9394991,0 -2.00642,0 l -0.2924019,0 0,-0.88142609 z m 0.1121376,0.37379219 0.1471053,0 q 0.050643,0 0.085008,-0.009043 0.034365,-0.009043 0.055466,-0.0265272 0.021101,-0.0180867 0.030145,-0.0446139 0.00965,-0.0271301 0.00965,-0.0627006 0,-0.0723469 -0.046423,-0.10369719 -0.046423,-0.0313503 -0.1465024,-0.0313503 l -0.1344446,0 0,0.27793258 z m 0,0.0940509 0,0.31832625 0.1603689,0 q 0.053054,0 0.088625,-0.01205781 0.036174,-0.0120578 0.057878,-0.0337619 0.022307,-0.0217041 0.031953,-0.0518486 0.00965,-0.0307474 0.00965,-0.0675238 0,-0.0337619 -0.010249,-0.0620977 -0.00965,-0.0283359 -0.032556,-0.0482313 -0.022307,-0.0204983 -0.059686,-0.0313503 -0.037379,-0.0114549 -0.092845,-0.0114549 l -0.1531342,0 z" font-size="0.348465" id="path4461" />
                                                                                                                        <path gorn="0.3.0.0.18.0.0.0.0.0.0.0.0.0.0.0.0.0.0.0.0.0.0.0.0.0.0.0.0.0.1" style="font-size:0.348465px;font-family:'Droid Sans';text-anchor:end;fill:#8c8c8c;stroke:none;stroke-width:0" d="m -1.0158707,0 -0.096462,-0.27310945 -0.3285754,0 L -1.5385769,0 l -0.1133434,0 0.3237523,-0.88504343 0.1024914,0 L -0.90132147,0 -1.0158707,0 Z m -0.132033,-0.3725864 -0.089228,-0.25562563 q -0.00362,-0.010852 -0.00904,-0.0265272 -0.00482,-0.0156752 -0.010249,-0.0337619 -0.00543,-0.0180867 -0.010852,-0.0373792 -0.00543,-0.0198954 -0.010249,-0.038585 -0.00422,0.0186896 -0.00965,0.038585 -0.00543,0.0198954 -0.010852,0.038585 -0.00543,0.0180867 -0.010852,0.0337619 -0.00482,0.0150723 -0.00844,0.0253214 l -0.087419,0.25562563 0.2568314,0 z" font-size="0.348465" id="path4463" />
                                                                                                                        <path gorn="0.3.0.0.18.0.0.0.0.0.0.0.0.0.0.0.0.0.0.0.0.0.0.0.0.0.0.0.0.0.2" style="font-size:0.348465px;font-family:'Droid Sans';text-anchor:end;fill:#8c8c8c;stroke:none;stroke-width:0" d="m -0.59987618,0 -0.11274055,0 0,-0.78255203 -0.25200828,0 0,-0.0988741 0.61615422,0 0,0.0988741 -0.25140539,0 0,0.78255203 z" font-size="0.348465" id="path4465" />
                                                                                                                        <path gorn="0.3.0.0.18.0.0.0.0.0.0.0.0.0.0.0.0.0.0.0.0.0.0.0.0.0.0.0.0.0.3" style="font-size:0.348465px;font-family:'Droid Sans';text-anchor:end;fill:#8c8c8c;stroke:none;stroke-width:0" d="m -0.34605925,-0.28034414 0,-0.10128562 0.29903374,0 0,0.10128562 -0.29903374,0 z" font-size="0.348465" id="path4467" />
                                                                                                                    </g>
                                                                                                                </g>
                                                                                                            </g>
                                                                                                        </g>
                                                                                                    </g>
                                                                                                </g>
                                                                                            </g>
                                                                                        </g>
                                                                                    </g>
                                                                                </g>
                                                                            </g>
                                                                        </g>
                                                                    </g>
                                                                </g>
                                                            </g>
                                                        </g>
                                                    </g>
                                                </g>
                                            </g>
                                        </g>
                                    </g>
                                </g>
                            </g>
                        </g>
                    </g>
                </g>
                <line gorn="0.3.0.0.19" style="fill:none;stroke:#787878;stroke-width:0.246944;stroke-linecap:round" id="connector8pin" class="pin" y1="10.66092" y2="10.66092"  x1="4.9547696" x2="-0.12523034"/>
                <rect height="0.000493888" width="0.0106539" id="connector8terminal" x="-0.254029" y="10.6607" fill="none" stroke="none" stroke-width="0"/>
                <line gorn="0.3.0.0.20" style="fill:none;stroke:#787878;stroke-width:0.246944;stroke-linecap:round" id="connector12pin" class="pin" y1="10.66092" y2="10.66092"  x1="25.52523" x2="20.44523"/>
                <rect height="0.000493888" width="0.0106539" id="connector12terminal" x="25.6434" y="10.6607" fill="none" stroke="none" stroke-width="0"/>
                <g transform="translate(-0.25046058,-2.4130225)" >
                    <g >
                        <g gorn="0.3.0.0.21.0.0" id="g4525" >
                            <g transform="translate(16.296246,13.392076)" >
                                <g >
                                    <g gorn="0.3.0.0.21.0.0.0.0.0" id="g162" >
                                        <g gorn="0.3.0.0.21.0.0.0.0.0.0" id="g164" >
                                            <g gorn="0.3.0.0.21.0.0.0.0.0.0.0" id="g166" >
                                                <g gorn="0.3.0.0.21.0.0.0.0.0.0.0.0" id="g168" >
                                                    <g gorn="0.3.0.0.21.0.0.0.0.0.0.0.0.0" id="g170" >
                                                        <g gorn="0.3.0.0.21.0.0.0.0.0.0.0.0.0.0" id="g4209" >
                                                            <g gorn="0.3.0.0.21.0.0.0.0.0.0.0.0.0.0.0" id="g4211" >
                                                                <g gorn="0.3.0.0.21.0.0.0.0.0.0.0.0.0.0.0.0" id="g4213" >
                                                                    <g gorn="0.3.0.0.21.0.0.0.0.0.0.0.0.0.0.0.0.0" id="g4215" >
                                                                        <g gorn="0.3.0.0.21.0.0.0.0.0.0.0.0.0.0.0.0.0.0" style="font-size:0.348465px;font-family:'Droid Sans';text-anchor:start;fill:#8c8c8c;stroke:none;stroke-width:0" font-size="0.348465" id="text4217" >
                                                                            <path gorn="0.3.0.0.21.0.0.0.0.0.0.0.0.0.0.0.0.0.0.0" style="font-size:0.348465px;font-family:'Droid Sans';text-anchor:start;fill:#8c8c8c;stroke:none;stroke-width:0" d="m 0.58178945,-0.88142609 0.11937234,0 L 0.40634828,0 0.29360773,0 0,-0.88142609 l 0.11876945,0 0.17785274,0.55887961 q 0.0174838,0.054863 0.0301445,0.10610875 0.0126607,0.0506428 0.0229098,0.0952567 0.009043,-0.0446139 0.0229098,-0.0952567 0.0138665,-0.0512457 0.0325561,-0.1097261 l 0.17664695,-0.55526226 z" font-size="0.348465" id="path4470" />
                                                                            <path gorn="0.3.0.0.21.0.0.0.0.0.0.0.0.0.0.0.0.0.0.1" style="font-size:0.348465px;font-family:'Droid Sans';text-anchor:start;fill:#8c8c8c;stroke:none;stroke-width:0" d="m 1.5174757,-0.44191883 q 0,0.10188852 -0.024719,0.18569032 -0.024116,0.0838018 -0.072347,0.14348796 -0.048231,0.05968618 -0.1199752,0.09224227 -0.071141,0.03255609 -0.1645891,0.03255609 -0.098271,0 -0.17061809,-0.03255609 -0.071744,-0.03255609 -0.11937235,-0.09224227 -0.0470255,-0.0596862 -0.0699353,-0.14348796 -0.0229098,-0.0844047 -0.0229098,-0.1868961 0,-0.1024914 0.0229098,-0.18569031 0.0229099,-0.0838018 0.0705382,-0.14288507 0.0476284,-0.0590833 0.11997524,-0.0910365 0.0723469,-0.0325561 0.170618,-0.0325561 0.093448,0 0.1639863,0.0325561 0.071141,0.0319532 0.1193723,0.0916394 0.048231,0.0590833 0.072347,0.14288507 0.024719,0.0831989 0.024719,0.1862932 z m -0.64569584,0 q 0,0.082596 0.0156752,0.14891399 0.0156751,0.0657151 0.0476284,0.11213765 0.0325561,0.0458197 0.0819931,0.0705382 0.05004,0.02411562 0.1187695,0.02411562 0.06873,0 0.1181665,-0.02411562 0.05004,-0.0247185 0.081993,-0.0705382 0.032556,-0.0464226 0.047628,-0.11213765 0.015072,-0.066318 0.015072,-0.14891399 0,-0.0831989 -0.015072,-0.14891398 -0.015072,-0.0657151 -0.047025,-0.11093187 -0.031953,-0.0458197 -0.08139,-0.0699353 -0.049437,-0.0247185 -0.1181666,-0.0247185 -0.068729,0 -0.1187694,0.0247185 -0.0500399,0.0241156 -0.082596,0.0699353 -0.0325561,0.0452168 -0.0482313,0.11093187 -0.0156752,0.0657151 -0.0156752,0.14891398 z" font-size="0.348465" id="path4472" />
                                                                            <path gorn="0.3.0.0.21.0.0.0.0.0.0.0.0.0.0.0.0.0.0.2" style="font-size:0.348465px;font-family:'Droid Sans';text-anchor:start;fill:#8c8c8c;stroke:none;stroke-width:0" d="m 2.3446416,-0.88263187 0,0.57154031 q 0,0.0687295 -0.019895,0.12781281 -0.019895,0.0590833 -0.060289,0.10249141 -0.039791,0.04340812 -0.1006827,0.06812664 -0.060289,0.02471851 -0.1422822,0.02471851 -0.07717,0 -0.1362533,-0.02290984 Q 1.8261557,-0.03436477 1.785762,-0.07717 1.7459712,-0.11997523 1.7254729,-0.17966141 1.7049747,-0.23995047 1.7049747,-0.31350312 l 0,-0.56792297 0.1127405,0 0,0.57395187 q 0,0.10550586 0.051849,0.16338336 0.052451,0.0578775 0.1579573,0.0578775 0.053657,0 0.092242,-0.01627805 0.038585,-0.016278 0.063303,-0.0458197 0.024719,-0.0295416 0.036776,-0.0705382 0.012058,-0.0409966 0.012661,-0.0898307 l 0,-0.57395187 0.1121377,0 z" font-size="0.348465" id="path4474" />
                                                                            <path gorn="0.3.0.0.21.0.0.0.0.0.0.0.0.0.0.0.0.0.0.3" style="font-size:0.348465px;font-family:'Droid Sans';text-anchor:start;fill:#8c8c8c;stroke:none;stroke-width:0" d="m 2.8317772,0 -0.1127405,0 0,-0.78255203 -0.2520083,0 0,-0.0988741 0.6161542,0 0,0.0988741 -0.2514054,0 0,0.78255203 z" font-size="0.348465" id="path4476" />
                                                                        </g>
                                                                    </g>
                                                                </g>
                                                            </g>
                                                        </g>
                                                    </g>
                                                </g>
                                            </g>
                                        </g>
                                    </g>
                                </g>
                            </g>
                        </g>
                    </g>
                </g>
                <line gorn="0.3.0.0.22" style="fill:none;stroke:#787878;stroke-width:0.246944;stroke-linecap:round" id="connector9pin" class="pin" y1="15.74092" y2="15.74092"  x1="4.9547696" x2="-0.12523027"/>
                <rect height="0.000493888" width="0.0106539" id="connector9terminal" x="-0.254029" y="15.7407" fill="none" stroke="none" stroke-width="0"/>
                <g transform="matrix(0,1,-1,0,25.900921,2.7820188)" >
                    <g >
                        <g gorn="0.3.0.0.23.0.0" id="g4718" >
                            <g transform="translate(13.399916,19.951328)" >
                                <g >
                                    <g gorn="0.3.0.0.23.0.0.0.0.0" id="g194" >
                                        <g gorn="0.3.0.0.23.0.0.0.0.0.0" id="g196" >
                                            <g gorn="0.3.0.0.23.0.0.0.0.0.0.0" id="g198" >
                                                <g gorn="0.3.0.0.23.0.0.0.0.0.0.0.0" id="g200" >
                                                    <g gorn="0.3.0.0.23.0.0.0.0.0.0.0.0.0" id="g202" >
                                                        <g gorn="0.3.0.0.23.0.0.0.0.0.0.0.0.0.0" id="g4720" >
                                                            <g gorn="0.3.0.0.23.0.0.0.0.0.0.0.0.0.0.0" id="g4722" >
                                                                <g transform="matrix(0,-1,1,0,0,0)" >
                                                                    <g >
                                                                        <g gorn="0.3.0.0.23.0.0.0.0.0.0.0.0.0.0.0.0.0.0" id="g206" >
                                                                            <g gorn="0.3.0.0.23.0.0.0.0.0.0.0.0.0.0.0.0.0.0.0" id="g208" >
                                                                                <g gorn="0.3.0.0.23.0.0.0.0.0.0.0.0.0.0.0.0.0.0.0.0" id="g210" >
                                                                                    <g gorn="0.3.0.0.23.0.0.0.0.0.0.0.0.0.0.0.0.0.0.0.0.0" id="g212" >
                                                                                        <g gorn="0.3.0.0.23.0.0.0.0.0.0.0.0.0.0.0.0.0.0.0.0.0.0" id="g214" >
                                                                                            <g gorn="0.3.0.0.23.0.0.0.0.0.0.0.0.0.0.0.0.0.0.0.0.0.0.0" id="g4724" >
                                                                                                <g gorn="0.3.0.0.23.0.0.0.0.0.0.0.0.0.0.0.0.0.0.0.0.0.0.0.0" id="g4726" >
                                                                                                    <g gorn="0.3.0.0.23.0.0.0.0.0.0.0.0.0.0.0.0.0.0.0.0.0.0.0.0.0" id="g4728" >
                                                                                                        <g gorn="0.3.0.0.23.0.0.0.0.0.0.0.0.0.0.0.0.0.0.0.0.0.0.0.0.0.0" id="g4730" >
                                                                                                            <g gorn="0.3.0.0.23.0.0.0.0.0.0.0.0.0.0.0.0.0.0.0.0.0.0.0.0.0.0.0" style="font-size:0.348465px;font-family:'Droid Sans';text-anchor:start;fill:#8c8c8c;stroke:none;stroke-width:0" font-size="0.348465" id="g4732" >
                                                                                                                <path gorn="0.3.0.0.23.0.0.0.0.0.0.0.0.0.0.0.0.0.0.0.0.0.0.0.0.0.0.0.0" style="font-size:0.348465px;font-family:'Droid Sans';text-anchor:start;fill:#8c8c8c;stroke:none;stroke-width:0" d="m 0.47146047,-0.46543156 0.29179906,0 0,0.43227258 q -0.033159,0.01085203 -0.0669209,0.0192925 Q 0.66257679,-0.00542602 0.62700625,0 0.5914357,0.00602891 0.55224781,0.00904336 q -0.0391879,0.00301445 -0.0844047,0.00301445 -0.0946538,0 -0.16760359,-0.03135031 -0.0729498,-0.0319532 -0.12298969,-0.09043359 -0.0500399,-0.0590833 -0.0759642,-0.14288508 -0.02592429,-0.0844047 -0.02592429,-0.18930766 0,-0.10369718 0.02833586,-0.18749898 0.0289388,-0.0838018 0.0838018,-0.14228218 0.054863,-0.0590833 0.1350475,-0.0904336 0.0807873,-0.0319532 0.18388164,-0.0319532 0.0669209,0 0.1284157,0.0132636 0.0614949,0.0132636 0.11454922,0.038585 l -0.0434081,0.0976683 q -0.0217041,-0.0102491 -0.0470255,-0.0192925 -0.0247185,-0.009043 -0.0512457,-0.0156751 -0.0265272,-0.007235 -0.0548631,-0.0114549 -0.027733,-0.00422 -0.0554659,-0.00422 -0.0735527,0 -0.13022437,0.0247185 -0.0566717,0.0241156 -0.0952567,0.0699353 -0.0379821,0.0458197 -0.0578775,0.11153476 -0.0198954,0.0657151 -0.0198954,0.1483111 0,0.0783758 0.016278,0.14348796 0.0168809,0.0651122 0.0530544,0.11213766 0.0361734,0.0470255 0.0934481,0.0729498 0.0572746,0.0259243 0.13806195,0.0259243 0.0265272,0 0.0482312,-0.0012058 0.022307,-0.0018087 0.0409966,-0.0042202 0.0186896,-0.0024116 0.0349677,-0.005426 0.0168809,-0.0036173 0.0325561,-0.0066318 l 0,-0.26286031 -0.18026429,0 0,-0.0988741 z" font-size="0.348465" id="path4734" />
                                                                                                                <path gorn="0.3.0.0.23.0.0.0.0.0.0.0.0.0.0.0.0.0.0.0.0.0.0.0.0.0.0.0.1" style="font-size:0.348465px;font-family:'Droid Sans';text-anchor:start;fill:#8c8c8c;stroke:none;stroke-width:0" d="m 1.631422,0 -0.1296214,0 -0.4334784,-0.72949765 -0.00482,0 q 0.00362,0.0464226 0.00603,0.0922423 0.00241,0.0391879 0.00362,0.0819931 0.00181,0.0428052 0.00181,0.07717 L 1.074954,0 0.97125682,0 l 0,-0.88142609 0.12841568,0 0.4316697,0.72588031 0.00422,0 q -0.00181,-0.0458197 -0.00422,-0.0904336 -6.029e-4,-0.0192925 -0.00181,-0.0391879 -6.029e-4,-0.0204983 -0.00181,-0.0403937 -6.029e-4,-0.0204983 -0.00121,-0.0391879 0,-0.0186896 0,-0.0343648 l 0,-0.4823125 0.1049029,0 0,0.88142609 z" font-size="0.348465" id="path4736" />
                                                                                                                <path gorn="0.3.0.0.23.0.0.0.0.0.0.0.0.0.0.0.0.0.0.0.0.0.0.0.0.0.0.0.2" style="font-size:0.348465px;font-family:'Droid Sans';text-anchor:start;fill:#8c8c8c;stroke:none;stroke-width:0" d="m 2.5224944,-0.44915351 q 0,0.11153476 -0.028939,0.19593945 -0.028939,0.0838018 -0.083802,0.14047351 -0.054863,0.05606883 -0.1350475,0.08440469 Q 2.1951248,0 2.0938392,0 l -0.220658,0 0,-0.88142609 0.2453765,0 q 0.092242,0 0.1670007,0.027733 0.074758,0.027733 0.12721,0.082596 0.052451,0.0542601 0.080787,0.13504749 0.028939,0.0807874 0.028939,0.1868961 z m -0.1187694,0.003617 q 0,-0.088022 -0.019895,-0.15192844 -0.019895,-0.0645093 -0.057878,-0.10610874 -0.037982,-0.0415995 -0.093448,-0.0614949 -0.055466,-0.0204983 -0.1260042,-0.0204983 l -0.121181,0 0,0.68910398 0.097668,0 q 0.1591631,0 0.2399505,-0.08802203 0.080787,-0.088022 0.080787,-0.26105164 z" font-size="0.348465" id="path4738" />
                                                                                                            </g>
                                                                                                        </g>
                                                                                                    </g>
                                                                                                </g>
                                                                                            </g>
                                                                                        </g>
                                                                                    </g>
                                                                                </g>
                                                                            </g>
                                                                        </g>
                                                                    </g>
                                                                </g>
                                                            </g>
                                                        </g>
                                                    </g>
                                                </g>
                                            </g>
                                        </g>
                                    </g>
                                </g>
                            </g>
                        </g>
                    </g>
                </g>
                <g style="font-style:normal;font-variant:normal;font-weight:normal;font-stretch:normal;font-size:1.25161016px;line-height:0%;font-family:'Droid Sans';-inkscape-font-specification:'Droid Sans, Normal';text-align:start;letter-spacing:0px;word-spacing:0px;writing-mode:lr-tb;text-anchor:start;fill:#8c8c8c;fill-opacity:1;stroke:none;stroke-width:0.282222;stroke-linecap:butt;stroke-linejoin:miter;stroke-opacity:1" gorn="0.3.0.0.24" id="text4817" xml:space="preserve"  xmlns:xml="http://www.w3.org/XML/1998/namespace">
                    <text gorn="0.3.0.0.24.0" x="5.9931211" id="tspan4819" y="11.08671" >VIN</text>
                </g>
            </g>
        </g>
    </g>
</svg>
