<?xml version='1.0' encoding='UTF-8' standalone='no'?>
<!-- Created with Fritzing (http://www.fritzing.org/) -->
<svg xmlns="http://www.w3.org/2000/svg" y="0in" gorn="0" version="1.2"  id="svg2" viewBox="0 0 37.013352 51.77307" height="0.71907043in" width="0.51407433in" x="0in">
    <metadata  id="metadata425">
        <rdf:RDF xmlns:rdf="http://www.w3.org/1999/02/22-rdf-syntax-ns#">
            <cc:Work rdf:about="" xmlns:cc="http://creativecommons.org/ns#" xmlns:rdf="http://www.w3.org/1999/02/22-rdf-syntax-ns#">
                <dc:format xmlns:dc="http://purl.org/dc/elements/1.1/">image/svg+xml</dc:format>
                <dc:type xmlns:dc="http://purl.org/dc/elements/1.1/" rdf:resource="http://purl.org/dc/dcmitype/StillImage" xmlns:rdf="http://www.w3.org/1999/02/22-rdf-syntax-ns#"/>
                <dc:title xmlns:dc="http://purl.org/dc/elements/1.1/"/>
            </cc:Work>
        </rdf:RDF>
    </metadata>
    <defs  id="defs423"/>
    <desc  id="desc4">
        <referenceFile >LiPo-USB-Charger-v21_pcb.svg</referenceFile>
    </desc>
    <desc  id="desc6">Fritzing footprint generated by brd2svg</desc>
    <g  transform="translate(42.882645,1.2720792)">
        <g >
            <g >
                <g gorn="0.4.0.0.0"  id="copper1">
                    <circle gorn="0.4.0.0.0.0" connectorname="VBAT"  stroke-width="1.05988002" fill="none" id="connector11pad" r="1.5220701" stroke="#f7bd13" cx="-7.9213028" cy="0.80610579"/>
                    <circle connectorname="VBAT" gorn="0.4.0.0.0.1"  stroke-width="1.05988002" fill="none" id="connector10pad" r="1.5220701" stroke="#f7bd13" cx="-40.830635" cy="0.80610579"/>
                    <circle gorn="0.4.0.0.0.2" connectorname="VBAT"  stroke-width="1.05988002" fill="none" id="connector8pad" r="1.5220701" stroke="#f7bd13" cx="-40.830635" cy="48.448982"/>
                    <circle connectorname="VBAT" gorn="0.4.0.0.0.3"  stroke-width="1.05988002" fill="none" id="connector9pad" r="1.5220701" stroke="#f7bd13" cx="-7.9213028" cy="48.448982"/>
                </g>
            </g>
        </g>
    </g>
    <g  transform="translate(42.882645,1.2720792)">
        <g >
            <g >
                <g gorn="0.5.0.0.0"  id="silkscreen">
                    <g  transform="matrix(1.0666666,0,0,-1.0666666,-36.719381,3.5309057)">
                        <g >
                            <g >
                                <g gorn="0.5.0.0.0.0.0.0.0"  id="g116">
                                    <path gorn="0.5.0.0.0.0.0.0.0.0"  fill="#ffffff" id="path118" fill-opacity="1" stroke="none" style="fill-rule:nonzero;" d="m 0,0 0.584,0 0,0.318 c 0,0.25 -0.102,0.376 -0.306,0.376 C 0.093,0.694 0,0.562 0,0.298 Z m -0.083,0 0,0.298 c 0,0.127 -0.021,0.219 -0.064,0.277 -0.042,0.057 -0.108,0.086 -0.198,0.086 -0.09,0 -0.155,-0.032 -0.196,-0.097 C -0.582,0.499 -0.602,0.402 -0.602,0.273 l 0,-0.273 z m -0.602,-0.094 0,0.37 c 0,0.168 0.028,0.29 0.085,0.369 0.056,0.078 0.142,0.117 0.257,0.117 0.078,0 0.143,-0.024 0.196,-0.072 0.052,-0.047 0.085,-0.117 0.1,-0.209 l 0.006,0 c 0.016,0.108 0.049,0.187 0.102,0.238 0.052,0.051 0.124,0.077 0.217,0.077 0.125,0 0.221,-0.042 0.288,-0.124 0.067,-0.083 0.101,-0.2 0.101,-0.352 l 0,-0.414 z"/>
                                </g>
                            </g>
                        </g>
                    </g>
                    <g  transform="matrix(1.0666666,0,0,-1.0666666,-36.607594,2.2197591)">
                        <g >
                            <g >
                                <g gorn="0.5.0.0.0.1.0.0.0"  id="g120">
                                    <path gorn="0.5.0.0.0.1.0.0.0.0"  fill="#ffffff" id="path122" fill-opacity="1" stroke="none" style="fill-rule:nonzero;" d="M 0,0 0,0.484 -0.488,0.3 C -0.526,0.285 -0.579,0.266 -0.647,0.244 -0.587,0.228 -0.534,0.21 -0.486,0.19 Z m 0.085,0.515 0,-0.549 0.477,-0.189 0,-0.104 -1.358,0.544 0,0.06 1.358,0.533 0,-0.107 z"/>
                                </g>
                            </g>
                        </g>
                    </g>
                    <g  transform="matrix(1.0666666,0,0,-1.0666666,-36.007914,0.77591916)">
                        <g >
                            <g >
                                <g gorn="0.5.0.0.0.2.0.0.0"  id="g124">
                                    <path gorn="0.5.0.0.0.2.0.0.0.0"  fill="#ffffff" id="path126" fill-opacity="1" stroke="none" style="fill-rule:nonzero;" d="m 0,0 0,-0.095 -1.264,0 0,-0.44 -0.088,0 0,0.974 0.088,0 0,-0.439 z"/>
                                </g>
                            </g>
                        </g>
                    </g>
                    <g  transform="matrix(1.0666666,0,0,-1.0666666,-36.761834,-0.84434741)">
                        <g >
                            <g >
                                <g gorn="0.5.0.0.0.3.0.0.0"  id="g128">
                                    <path gorn="0.5.0.0.0.3.0.0.0.0"  fill="#ffffff" id="path130" fill-opacity="1" stroke="none" style="fill-rule:nonzero;" d="m 0,0 0,0.401 0.076,0 0,-0.401 0.399,0 0,-0.076 -0.399,0 0,-0.399 -0.076,0 0,0.399 -0.401,0 0,0.076 z"/>
                                </g>
                            </g>
                        </g>
                    </g>
                    <g  transform="matrix(1.0666666,0,0,-1.0666666,-11.819649,3.5309057)">
                        <g >
                            <g >
                                <g gorn="0.5.0.0.0.4.0.0.0"  id="g132">
                                    <path gorn="0.5.0.0.0.4.0.0.0.0"  fill="#ffffff" id="path134" fill-opacity="1" stroke="none" style="fill-rule:nonzero;" d="m 0,0 0.584,0 0,0.318 c 0,0.25 -0.102,0.376 -0.306,0.376 C 0.093,0.694 0,0.562 0,0.298 Z m -0.083,0 0,0.298 c 0,0.127 -0.021,0.219 -0.064,0.277 -0.042,0.057 -0.108,0.086 -0.198,0.086 -0.09,0 -0.155,-0.032 -0.196,-0.097 C -0.582,0.499 -0.602,0.402 -0.602,0.273 l 0,-0.273 z m -0.602,-0.094 0,0.37 c 0,0.168 0.028,0.29 0.085,0.369 0.056,0.078 0.142,0.117 0.257,0.117 0.078,0 0.143,-0.024 0.196,-0.072 0.052,-0.047 0.085,-0.117 0.1,-0.209 l 0.006,0 c 0.016,0.108 0.049,0.187 0.102,0.238 0.052,0.051 0.124,0.077 0.217,0.077 0.125,0 0.221,-0.042 0.288,-0.124 0.067,-0.083 0.101,-0.2 0.101,-0.352 l 0,-0.414 z"/>
                                </g>
                            </g>
                        </g>
                    </g>
                    <g  transform="matrix(1.0666666,0,0,-1.0666666,-11.707863,2.2197591)">
                        <g >
                            <g >
                                <g gorn="0.5.0.0.0.5.0.0.0"  id="g136">
                                    <path gorn="0.5.0.0.0.5.0.0.0.0"  fill="#ffffff" id="path138" fill-opacity="1" stroke="none" style="fill-rule:nonzero;" d="M 0,0 0,0.484 -0.488,0.3 C -0.526,0.285 -0.579,0.266 -0.647,0.244 -0.587,0.228 -0.534,0.21 -0.486,0.19 Z m 0.085,0.515 0,-0.549 0.477,-0.189 0,-0.104 -1.358,0.544 0,0.06 1.358,0.533 0,-0.107 z"/>
                                </g>
                            </g>
                        </g>
                    </g>
                    <g  transform="matrix(1.0666666,0,0,-1.0666666,-11.108183,0.77591916)">
                        <g >
                            <g >
                                <g gorn="0.5.0.0.0.6.0.0.0"  id="g140">
                                    <path gorn="0.5.0.0.0.6.0.0.0.0"  fill="#ffffff" id="path142" fill-opacity="1" stroke="none" style="fill-rule:nonzero;" d="m 0,0 0,-0.095 -1.264,0 0,-0.44 -0.088,0 0,0.974 0.088,0 0,-0.439 z"/>
                                </g>
                            </g>
                        </g>
                    </g>
                    <path gorn="0.5.0.0.0.7"  fill="#ffffff" id="path144" fill-opacity="1" stroke="none" style="fill-rule:nonzero;" d="m -11.613356,-0.31848077 -0.08107,0 0,-0.46826664 0.08107,0 z"/>
                    <path gorn="0.5.0.0.0.8"  fill="#ffffff" id="path146" fill-opacity="1" stroke="none" style="fill-rule:nonzero;" d="m -40.037888,44.53165 -1.442133,0 0,-0.100267 1.442133,0 z"/>
                    <g  transform="matrix(1.0666666,0,0,-1.0666666,-40.037568,42.973463)">
                        <g >
                            <g >
                                <g gorn="0.5.0.0.0.9.0.0.0"  id="g148">
                                    <path gorn="0.5.0.0.0.9.0.0.0.0"  fill="#ffffff" id="path150" fill-opacity="1" stroke="none" style="fill-rule:nonzero;" d="m 0,0 0,-0.095 -1.201,-0.801 0,-0.008 c 0.143,0.008 0.251,0.012 0.324,0.012 l 0.877,0 0,-0.091 -1.352,0 0,0.094 1.198,0.8 0,0.006 C -0.265,-0.089 -0.37,-0.092 -0.47,-0.092 l -0.882,0 0,0.092 z"/>
                                </g>
                            </g>
                        </g>
                    </g>
                    <g  transform="matrix(1.0666666,0,0,-1.0666666,-40.791488,41.627543)">
                        <g >
                            <g >
                                <g gorn="0.5.0.0.0.10.0.0.0"  id="g152">
                                    <path gorn="0.5.0.0.0.10.0.0.0.0"  fill="#ffffff" id="path154" fill-opacity="1" stroke="none" style="fill-rule:nonzero;" d="m 0,0 0,0.401 0.076,0 0,-0.401 0.399,0 0,-0.076 -0.399,0 0,-0.399 -0.076,0 0,0.399 -0.401,0 0,0.076 z"/>
                                </g>
                            </g>
                        </g>
                    </g>
                    <path gorn="0.5.0.0.0.11"  fill="#ffffff" id="path156" fill-opacity="1" stroke="none" style="fill-rule:nonzero;" d="m -7.128023,44.53165 -1.4421332,0 0,-0.100267 1.4421332,0 z"/>
                    <g  transform="matrix(1.0666666,0,0,-1.0666666,-7.128023,42.973463)">
                        <g >
                            <g >
                                <g gorn="0.5.0.0.0.12.0.0.0"  id="g158">
                                    <path gorn="0.5.0.0.0.12.0.0.0.0"  fill="#ffffff" id="path160" fill-opacity="1" stroke="none" style="fill-rule:nonzero;" d="m 0,0 0,-0.095 -1.201,-0.801 0,-0.008 c 0.143,0.008 0.251,0.012 0.324,0.012 l 0.877,0 0,-0.091 -1.352,0 0,0.094 1.198,0.8 0,0.006 C -0.265,-0.089 -0.37,-0.092 -0.47,-0.092 l -0.882,0 0,0.092 z"/>
                                </g>
                            </g>
                        </g>
                    </g>
                    <path gorn="0.5.0.0.0.13"  fill="#ffffff" id="path162" fill-opacity="1" stroke="none" style="fill-rule:nonzero;" d="m -7.6325563,42.152983 -0.081067,0 0,-0.468266 0.081067,0 z"/>
                </g>
            </g>
        </g>
    </g>
</svg>
